<?xml version="1.0" standalone="no"?>
<!DOCTYPE svg PUBLIC "-//W3C//DTD SVG 20010904//EN"
 "http://www.w3.org/TR/2001/REC-SVG-20010904/DTD/svg10.dtd">
<svg version="1.0" xmlns="http://www.w3.org/2000/svg"
 width="300.000000pt" height="307.000000pt" viewBox="0 0 300.000000 307.000000"
 preserveAspectRatio="xMidYMid meet">
<metadata>
Created by potrace 1.10, written by Peter Selinger 2001-2011
</metadata>
<g transform="translate(0.000000,307.000000) scale(0.100000,-0.100000)"
fill="#000000" stroke="none">
<path d="M1345 2594 c-93 -22 -162 -37 -172 -37 -7 0 -13 -5 -13 -10 0 -5 -7
-7 -15 -3 -8 3 -15 1 -15 -4 0 -5 -7 -7 -15 -4 -8 4 -15 1 -15 -7 0 -7 -3 -9
-6 -6 -8 8 -193 -86 -222 -113 -11 -11 -24 -20 -28 -20 -17 0 -235 -220 -228
-231 2 -4 -1 -11 -8 -16 -12 -7 -41 -46 -62 -80 -4 -7 -3 -13 2 -13 5 0 29 30
52 67 56 86 198 227 291 288 40 26 106 63 148 82 90 41 238 85 261 78 9 -3 33
2 54 10 20 9 40 14 45 11 17 -11 100 -15 131 -6 18 5 38 6 44 1 6 -5 42 -11
81 -15 38 -4 102 -18 142 -32 96 -32 243 -101 243 -115 0 -5 5 -7 10 -4 6 3
10 1 10 -4 0 -6 7 -11 15 -11 9 0 18 -7 21 -15 4 -8 12 -15 19 -15 15 0 162
-142 193 -186 12 -17 19 -34 17 -38 -3 -3 -2 -4 2 -1 10 8 73 -97 66 -109 -3
-5 -1 -6 4 -3 17 11 108 -204 100 -235 -3 -10 -2 -16 2 -13 12 7 31 -148 31
-248 0 -99 -18 -227 -32 -227 -5 0 -7 -4 -3 -10 6 -10 -35 -117 -57 -149 -12
-17 -17 -18 -39 -7 -13 7 -23 18 -21 25 1 7 -1 10 -6 7 -5 -3 -27 14 -49 37
-22 23 -55 54 -74 70 -38 31 -38 29 -24 218 9 127 -4 215 -46 307 -16 35 -29
66 -29 68 0 15 -105 155 -143 191 -63 60 -167 128 -225 149 -28 10 -48 22 -45
28 3 5 2 6 -4 3 -5 -3 -36 1 -69 11 -42 11 -97 16 -189 16 -114 -1 -140 -4
-215 -29 -106 -34 -150 -56 -221 -111 -31 -24 -60 -40 -64 -36 -3 4 -5 3 -4
-3 2 -5 -12 -26 -31 -45 -74 -78 -203 -310 -171 -310 6 0 32 60 37 86 3 19 53
101 69 114 8 7 15 18 15 24 2 33 236 236 254 219 3 -4 6 -1 6 5 0 7 3 11 8 10
4 -2 38 10 77 26 84 33 138 41 271 39 101 -1 116 -5 284 -67 25 -10 62 -30 82
-47 20 -16 41 -29 47 -29 5 0 11 -3 13 -7 2 -5 25 -28 53 -53 53 -47 115 -123
115 -140 0 -6 5 -10 11 -10 5 0 8 -4 5 -9 -4 -5 -3 -11 2 -13 12 -5 73 -139
67 -148 -3 -5 -1 -11 4 -15 6 -3 8 -12 4 -20 -3 -8 0 -15 7 -15 8 0 10 -9 6
-24 -3 -14 -3 -27 2 -30 4 -2 6 -42 4 -88 -2 -45 -4 -98 -4 -115 0 -18 -4 -33
-10 -33 -6 0 -8 -9 -5 -20 3 -11 1 -20 -3 -20 -4 0 -6 -10 -2 -22 6 -25 215
-231 237 -234 11 -2 42 53 50 86 0 3 11 32 23 64 36 93 48 180 46 321 -2 94
-8 149 -22 200 -78 275 -213 478 -415 625 -70 50 -226 132 -238 124 -5 -3 -9
0 -9 5 0 6 -3 10 -7 10 -5 -1 -10 0 -13 1 -3 1 -12 3 -20 5 -8 2 -51 13 -95
25 -58 15 -118 22 -220 25 -77 2 -149 2 -160 -1z"/>
<path d="M520 2020 c-6 -11 -8 -20 -5 -20 3 0 -6 -23 -21 -51 -14 -28 -23 -53
-21 -55 3 -3 20 26 38 63 18 37 35 71 37 76 9 17 -18 5 -28 -13z"/>
<path d="M445 1813 c4 -15 2 -23 -5 -23 -6 0 -9 -3 -7 -7 3 -5 -1 -39 -9 -78
-18 -93 -17 -235 1 -330 8 -43 12 -82 9 -86 -3 -5 0 -9 6 -9 7 0 9 -8 5 -20
-4 -11 -2 -20 4 -20 6 0 8 -7 5 -15 -4 -8 -1 -15 5 -15 14 0 15 -6 -11 97 -29
116 -32 344 -4 442 13 49 14 66 6 75 -9 8 -11 6 -5 -11z"/>
<path d="M756 1719 c-11 -32 -26 -136 -26 -181 0 -60 28 -199 42 -213 8 -7 9
-4 4 10 -15 39 -36 168 -36 213 0 26 7 76 14 112 13 59 14 93 2 59z"/>
<path d="M1466 1611 c-4 -6 -11 -9 -16 -6 -13 8 -50 -49 -50 -77 0 -36 18 -58
229 -273 385 -393 643 -645 653 -639 6 4 14 0 19 -7 7 -11 9 -11 9 -1 0 7 4
10 10 7 5 -3 31 16 58 42 26 26 72 72 102 100 72 69 80 79 80 100 0 10 -62 82
-138 160 -75 78 -191 199 -257 270 -65 70 -161 169 -213 219 l-93 92 -62 6
c-34 3 -89 6 -121 5 -32 0 -91 3 -131 6 -50 5 -75 4 -79 -4z m64 -11 c-10 -7
24 -10 111 -9 69 1 130 0 135 -3 5 -3 25 -7 44 -9 20 -2 44 -13 56 -26 12 -12
24 -20 26 -17 3 2 47 -42 99 -98 116 -125 129 -138 350 -368 152 -157 179
-190 179 -216 0 -26 -16 -46 -100 -127 -80 -78 -105 -97 -129 -97 -16 0 -31 6
-35 15 -3 8 -9 14 -13 13 -12 -4 -73 54 -68 63 3 4 0 11 -6 15 -8 5 -9 3 -4
-7 4 -8 -54 49 -130 126 -76 77 -248 251 -383 387 -178 179 -243 251 -238 263
3 9 2 13 -4 10 -6 -3 -10 3 -10 14 0 12 5 21 10 21 6 0 10 6 10 14 0 13 65 42
100 45 13 1 13 0 0 -9z"/>
<path d="M810 1204 c0 -22 102 -153 168 -215 75 -71 142 -119 142 -102 0 5
-15 17 -34 27 -19 10 -37 25 -40 32 -3 8 -10 14 -15 14 -13 0 -131 116 -131
129 0 6 -4 11 -10 11 -5 0 -10 5 -10 11 0 6 -11 25 -25 43 -14 18 -25 38 -25
44 0 7 -4 12 -10 12 -5 0 -10 -3 -10 -6z"/>
<path d="M470 1167 c0 -4 9 -26 19 -49 10 -24 24 -55 30 -70 6 -16 15 -28 20
-28 6 0 -5 32 -24 71 -33 69 -45 89 -45 76z"/>
<path d="M561 970 c13 -22 26 -40 31 -40 4 0 8 -7 8 -15 0 -8 5 -15 10 -15 6
0 10 -5 10 -11 0 -30 248 -259 280 -259 6 0 10 -5 10 -11 0 -5 5 -7 10 -4 6 3
10 1 10 -4 0 -6 4 -11 9 -11 5 0 37 -16 70 -36 33 -20 65 -33 71 -29 5 3 10 1
10 -5 0 -6 5 -8 10 -5 6 3 10 1 10 -5 0 -7 6 -10 13 -7 6 2 36 -4 66 -14 80
-28 176 -43 197 -31 14 8 10 9 -17 8 -80 -5 -296 64 -411 131 -91 52 -174 118
-240 188 -69 73 -82 90 -125 155 -43 67 -66 81 -32 20z"/>
<path d="M1134 878 c8 -40 326 -115 326 -77 0 7 -16 9 -50 4 -36 -5 -50 -4
-50 5 0 8 -8 10 -21 7 -12 -3 -51 6 -88 19 -36 14 -72 26 -78 26 -7 1 -13 5
-13 10 0 5 -4 7 -9 4 -5 -4 -12 -1 -14 4 -3 6 -4 5 -3 -2z"/>
<path d="M1820 860 c0 -5 10 -10 23 -10 25 -1 60 -24 50 -33 -3 -4 1 -7 9 -7
17 0 120 -112 131 -141 8 -23 -57 -81 -84 -75 -3 0 -14 -6 -24 -14 -9 -8 -34
-22 -53 -30 -22 -10 -32 -19 -25 -23 6 -4 19 0 27 9 9 8 16 13 16 9 0 -7 102
46 111 58 3 5 10 8 15 6 5 -1 13 8 19 20 5 11 13 21 17 21 18 0 4 28 -32 65
-22 22 -40 43 -40 47 0 3 -27 29 -61 57 -56 47 -99 65 -99 41z"/>
<path d="M1735 838 c-27 -11 -64 -21 -81 -22 -17 -2 -36 -6 -42 -10 -7 -4 -29
-4 -49 0 -31 5 -36 4 -26 -7 11 -11 27 -11 90 0 43 7 93 19 112 27 18 8 42 14
52 14 11 0 19 5 19 10 0 14 -17 11 -75 -12z"/>
<path d="M1740 504 c-79 -27 -65 -31 19 -5 33 10 63 16 66 13 3 -3 5 0 5 6 0
16 -12 14 -90 -14z"/>
</g>
</svg>
